<?xml version="1.0" encoding="UTF-8" standalone="no"?>
<svg
   xmlns:dc="http://purl.org/dc/elements/1.1/"
   xmlns:cc="http://creativecommons.org/ns#"
   xmlns:rdf="http://www.w3.org/1999/02/22-rdf-syntax-ns#"
   xmlns:svg="http://www.w3.org/2000/svg"
   xmlns="http://www.w3.org/2000/svg"
   viewBox="0 0 188.528 229.31332"
   height="229.31332"
   width="188.528"
   xml:space="preserve"
   id="svg2"
   version="1.1"><metadata
     id="metadata8"><rdf:RDF><cc:Work
         rdf:about=""><dc:format>image/svg+xml</dc:format><dc:type
           rdf:resource="http://purl.org/dc/dcmitype/StillImage" /></cc:Work></rdf:RDF></metadata><defs
     id="defs6"><clipPath
       id="clipPath18"
       clipPathUnits="userSpaceOnUse"><path
         id="path16"
         d="M 0,171.985 H 141.396 V 0 H 0 Z" /></clipPath></defs><g
     transform="matrix(1.3333333,0,0,-1.3333333,0,229.31333)"
     id="g10"><g
       id="g12"><g
         clip-path="url(#clipPath18)"
         id="g14"><g
           transform="translate(50.4583,66.0877)"
           id="g20"><path
             id="path22"
             style="fill:#000000;fill-opacity:1;fill-rule:nonzero;stroke:none"
             d="M 0,0 C 4.572,7.466 11.892,12.3 20.128,12.3 28.363,12.3 35.684,7.458 40.256,0 36.653,14.963 28.987,25.285 20.128,25.285 11.269,25.285 3.595,14.956 0,0" /></g><g
           transform="translate(91.1917,44.7976)"
           id="g24"><path
             id="path26"
             style="fill:#000000;fill-opacity:1;fill-rule:nonzero;stroke:none"
             d="m 0,0 c 0,14.578 -9.237,26.424 -20.598,26.424 -11.361,0 -20.597,-11.846 -20.597,-26.424 0,-14.579 9.236,-26.424 20.597,-26.424 C -9.229,-26.424 0,-14.579 0,0" /></g><g
           transform="translate(87.1585,19.5891)"
           id="g28"><path
             id="path30"
             style="fill:#000000;fill-opacity:1;fill-rule:nonzero;stroke:none"
             d="m 0,0 c 6.219,6.073 10.299,15.579 10.299,26.109 0,3.602 -0.47,7.074 -1.332,10.322 0.184,2.925 1.008,9.013 -1.424,17.888 -2.44,8.898 -8.105,15.256 -11.577,18.812 5.25,1.316 9.86,5.534 12.985,10.93 3.125,5.396 6.774,13.947 7.998,28.48 1.224,14.532 -2.902,33.12 -4.857,39.855 4.98,-5.796 11.746,-17.549 16.126,-28.664 4.379,-11.115 9.059,-28.226 10.884,-40.302 1.824,-12.077 2.239,-19.705 0.761,-27.764 -5.718,3.356 -9.214,0.885 -10.792,-0.223 -1.577,-1.109 -4.933,-4.818 -6.534,-9.229 -1.601,-4.403 -2.217,-10.853 -1.432,-15.633 0.786,-4.78 2.624,-6.035 4.272,-6.012 1.647,0.024 4.58,0.947 10.553,8.021 5.965,7.074 10.352,15.571 11.954,19.835 1.6,4.265 4.164,10.969 5.865,18.897 C 55.389,57.136 52.663,43.458 49.185,34.152 45.705,24.847 40.363,15.025 29.303,2.802 18.242,-9.421 6.635,-16.887 -5.357,-19.589 c 1.701,2.271 3.394,6.058 4.21,9.406 0.816,3.348 1.185,7.258 1.162,10.168 z" /></g><g
           transform="translate(54.0218,19.5891)"
           id="g32"><path
             id="path34"
             style="fill:#000000;fill-opacity:1;fill-rule:nonzero;stroke:none"
             d="m 0,0 c -6.096,6.081 -10.299,15.702 -10.299,26.109 0,4.033 0.585,7.905 1.663,11.484 -0.547,5.311 -0.177,8.59 0.577,12.7 0.793,4.288 2.979,9.684 4.48,12.762 -9.829,3.133 -14.74,9.221 -17.511,15.903 -2.771,6.681 -3.525,17.542 -3.156,26.871 0.369,9.328 1.939,15.786 4.095,21.944 -5.866,-6.897 -12.108,-17.611 -14.894,-24.185 -2.786,-6.573 -5.619,-16.918 -6.474,-24.63 -0.854,-7.713 -0.977,-14.817 1.656,-23.284 5.803,3.548 9.305,0.885 10.883,-0.223 1.578,-1.109 4.803,-5.104 6.651,-10.076 1.847,-4.973 1.993,-10.114 1.184,-14.779 -0.807,-4.664 -2.816,-5.796 -4.255,-5.78 -1.432,0.023 -4.442,0.716 -10.414,7.789 -5.974,7.074 -10.561,15.741 -12.201,19.836 -1.647,4.102 -3.864,10.099 -5.288,18.003 -1.808,-13.77 -0.123,-24.5 4.141,-36.276 4.265,-11.777 12.9,-23.422 19.859,-31.351 6.958,-7.92 18.504,-18.142 34.66,-22.391 -1.939,3.687 -2.871,6.089 -3.848,9.76 -0.978,3.672 -1.247,6.92 -1.525,9.807 z" /></g></g></g></g></svg>