<?xml version="1.0" encoding="UTF-8" standalone="no"?>
<svg
   xmlns:dc="http://purl.org/dc/elements/1.1/"
   xmlns:cc="http://creativecommons.org/ns#"
   xmlns:rdf="http://www.w3.org/1999/02/22-rdf-syntax-ns#"
   xmlns:svg="http://www.w3.org/2000/svg"
   xmlns="http://www.w3.org/2000/svg"
   viewBox="0 0 215.34534 215.336"
   xml:space="preserve"
   id="svg2"
   version="1.1"><metadata
     id="metadata8"><rdf:RDF><cc:Work
         rdf:about=""><dc:format>image/svg+xml</dc:format><dc:type
           rdf:resource="http://purl.org/dc/dcmitype/StillImage" /></cc:Work></rdf:RDF></metadata><defs
     id="defs6"><clipPath
       id="clipPath18"
       clipPathUnits="userSpaceOnUse"><path
         id="path16"
         d="M 0,161.502 H 161.509 V 0 H 0 Z" /></clipPath></defs><g
     transform="matrix(1.3333333,0,0,-1.3333333,0,215.336)"
     id="g10"><g
       id="g12"><g
         clip-path="url(#clipPath18)"
         id="g14"><g
           transform="translate(23.7536,56.9973)"
           id="g20"><path
             id="path22"
             style="fill:currentColor;fill-opacity:1;fill-rule:nonzero;stroke:none"
             d="M 0,0 C -7.921,7.92 -15.833,15.833 -23.754,23.753 -15.833,31.674 -7.921,39.587 0,47.507 7.92,39.587 15.833,31.674 23.753,23.753 15.833,15.833 7.92,7.92 0,0" /></g><g
           transform="translate(52.2556,28.5026)"
           id="g24"><path
             id="path26"
             style="fill:currentColor;fill-opacity:1;fill-rule:nonzero;stroke:none"
             d="M 0,0 C -7.92,7.92 -15.833,15.833 -23.753,23.753 -15.833,31.674 -7.92,39.586 0,47.507 7.921,39.586 15.833,31.674 23.754,23.753 15.841,15.833 7.921,7.92 0,0" /></g><g
           transform="translate(80.7585,2e-4)"
           id="g28"><path
             id="path30"
             style="fill:currentColor;fill-opacity:1;fill-rule:nonzero;stroke:none"
             d="M 0,0 C -7.92,7.92 -15.833,15.833 -23.753,23.753 -15.833,31.674 -7.92,39.586 0,47.507 7.921,39.586 15.833,31.674 23.754,23.753 15.833,15.833 7.921,7.92 0,0" /></g><g
           transform="translate(109.2536,28.5026)"
           id="g32"><path
             id="path34"
             style="fill:currentColor;fill-opacity:1;fill-rule:nonzero;stroke:none"
             d="M 0,0 C -7.921,7.92 -15.833,15.833 -23.754,23.753 -15.833,31.674 -7.921,39.586 0,47.507 7.92,39.586 15.833,31.674 23.753,23.753 15.833,15.833 7.92,7.92 0,0" /></g><g
           transform="translate(137.7556,56.9973)"
           id="g36"><path
             id="path38"
             style="fill:currentColor;fill-opacity:1;fill-rule:nonzero;stroke:none"
             d="M 0,0 C -7.92,7.92 -15.833,15.833 -23.753,23.753 -15.833,31.674 -7.92,39.587 0,47.507 7.921,39.587 15.834,31.674 23.754,23.753 15.834,15.833 7.921,7.92 0,0" /></g><g
           transform="translate(80.7585,56.9973)"
           id="g40"><path
             id="path42"
             style="fill:currentColor;fill-opacity:1;fill-rule:nonzero;stroke:none"
             d="M 0,0 C -17.364,17.365 -34.73,34.73 -52.095,52.095 -34.73,69.567 -17.364,87.032 0,104.504 17.419,87.086 34.83,69.667 52.248,52.256 34.83,34.837 17.411,17.419 0,0.008 Z" /></g></g></g></g></svg>