<?xml version="1.0" encoding="UTF-8" standalone="no"?>
<svg
   xmlns:dc="http://purl.org/dc/elements/1.1/"
   xmlns:cc="http://creativecommons.org/ns#"
   xmlns:rdf="http://www.w3.org/1999/02/22-rdf-syntax-ns#"
   xmlns:svg="http://www.w3.org/2000/svg"
   xmlns="http://www.w3.org/2000/svg"
   viewBox="0 0 223.14532 215.34666"
   xml:space="preserve"
   id="svg2"
   version="1.1"><metadata
     id="metadata8"><rdf:RDF><cc:Work
         rdf:about=""><dc:format>image/svg+xml</dc:format><dc:type
           rdf:resource="http://purl.org/dc/dcmitype/StillImage" /></cc:Work></rdf:RDF></metadata><defs
     id="defs6"><clipPath
       id="clipPath18"
       clipPathUnits="userSpaceOnUse"><path
         id="path16"
         d="M 0,161.51 H 167.359 V 0 H 0 Z" /></clipPath></defs><g
     transform="matrix(1.3333333,0,0,-1.3333333,0,215.34667)"
     id="g10"><g
       id="g12"><g
         clip-path="url(#clipPath18)"
         id="g14"><g
           transform="translate(83.6834,89.5641)"
           id="g20"><path
             id="path22"
             style="fill:currentColor;fill-opacity:1;fill-rule:nonzero;stroke:none"
             d="M 0,0 C -6.466,-11.199 -12.931,-22.391 -19.389,-33.59 H 19.396 C 12.932,-22.391 6.466,-11.199 0.008,0 Z" /></g><g
           transform="translate(117.2664,52.4332)"
           id="g24"><path
             id="path26"
             style="fill:currentColor;fill-opacity:1;fill-rule:nonzero;stroke:none"
             d="m 0,0 c 16.695,-9.668 33.397,-19.328 50.093,-28.996 -8.36,14.479 -16.718,28.957 -25.077,43.435 -1.94,-1.115 -3.88,-2.239 -5.82,-3.356 -2.686,4.658 -5.372,9.307 -8.058,13.963 4.479,7.759 8.966,15.518 13.447,23.277 -8.96,0 -17.927,-0.008 -26.887,-0.008 -2.686,4.657 -5.372,9.306 -8.058,13.962 1.939,1.117 3.879,2.241 5.818,3.356 C -12.9,80.112 -21.26,94.59 -29.619,109.068 -29.596,89.772 -29.58,70.483 -29.558,51.186 -19.705,34.121 -9.853,17.057 0,-0.008 Z" /></g><g
           transform="translate(54.1268,45.4518)"
           id="g28"><path
             id="path30"
             style="fill:currentColor;fill-opacity:1;fill-rule:nonzero;stroke:none"
             d="M 0,0 C -16.719,-9.629 -33.437,-19.258 -50.155,-28.888 H 0 v 6.72 h 16.125 c 4.479,-7.767 8.96,-15.525 13.432,-23.284 4.479,7.766 8.96,15.525 13.431,23.284 h 16.126 v -6.72 h 50.155 C 92.551,-19.258 75.832,-9.629 59.114,0 Z" /></g><g
           transform="translate(79.6502,103.6271)"
           id="g32"><path
             id="path34"
             style="fill:currentColor;fill-opacity:1;fill-rule:nonzero;stroke:none"
             d="m 0,0 c 0.023,19.296 0.038,38.585 0.062,57.882 -8.36,-14.478 -16.718,-28.956 -25.078,-43.435 1.94,-1.116 3.879,-2.239 5.82,-3.356 -2.687,-4.656 -5.373,-9.305 -8.06,-13.962 -8.959,0 -17.926,0.007 -26.886,0.007 4.48,-7.758 8.967,-15.517 13.447,-23.276 -2.686,-4.656 -5.372,-9.306 -8.059,-13.963 -1.939,1.117 -3.879,2.241 -5.819,3.356 -8.359,-14.478 -16.718,-28.956 -25.077,-43.435 16.695,9.668 33.398,19.328 50.093,28.995 9.852,17.065 19.704,34.13 29.557,51.194 z" /></g></g></g></g></svg>